<mxfile host="65bd71144e">
    <diagram id="CRu0S-tmXng9pk23Mdlh" name="PÃ¡gina-1">
        <mxGraphModel dx="2163" dy="760" grid="1" gridSize="10" guides="1" tooltips="1" connect="1" arrows="1" fold="1" page="1" pageScale="1" pageWidth="827" pageHeight="1169" math="0" shadow="0">
            <root>
                <mxCell id="0"/>
                <mxCell id="1" parent="0"/>
                <mxCell id="4" value="" style="edgeStyle=none;html=1;" parent="1" source="2" target="3" edge="1">
                    <mxGeometry relative="1" as="geometry"/>
                </mxCell>
                <mxCell id="2" value="INICIO" style="ellipse;whiteSpace=wrap;html=1;fillColor=#60a917;fontColor=#ffffff;strokeColor=#2D7600;" parent="1" vertex="1">
                    <mxGeometry x="354" width="120" height="80" as="geometry"/>
                </mxCell>
                <mxCell id="6" value="" style="edgeStyle=none;html=1;" edge="1" parent="1" source="3" target="5">
                    <mxGeometry relative="1" as="geometry"/>
                </mxCell>
                <mxCell id="3" value="PESO, ALTURA&amp;nbsp;" style="shape=parallelogram;perimeter=parallelogramPerimeter;whiteSpace=wrap;html=1;fixedSize=1;fillColor=#1ba1e2;fontColor=#ffffff;strokeColor=#006EAF;" parent="1" vertex="1">
                    <mxGeometry x="354" y="110" width="120" height="60" as="geometry"/>
                </mxCell>
                <mxCell id="8" value="" style="edgeStyle=none;html=1;" edge="1" parent="1" source="5" target="7">
                    <mxGeometry relative="1" as="geometry"/>
                </mxCell>
                <mxCell id="5" value="(MC = peso [kg]/&lt;br&gt;altura2 [m]" style="shape=parallelogram;perimeter=parallelogramPerimeter;whiteSpace=wrap;html=1;fixedSize=1;fillColor=#1ba1e2;fontColor=#ffffff;strokeColor=#006EAF;" vertex="1" parent="1">
                    <mxGeometry x="354" y="200" width="120" height="60" as="geometry"/>
                </mxCell>
                <mxCell id="12" value="" style="edgeStyle=none;html=1;" edge="1" parent="1" source="7" target="11">
                    <mxGeometry relative="1" as="geometry">
                        <Array as="points">
                            <mxPoint x="280" y="330"/>
                        </Array>
                    </mxGeometry>
                </mxCell>
                <mxCell id="7" value="IMC &amp;lt;=16" style="rhombus;whiteSpace=wrap;html=1;fillColor=#e3c800;fontColor=#000000;strokeColor=#B09500;" vertex="1" parent="1">
                    <mxGeometry x="374" y="290" width="80" height="80" as="geometry"/>
                </mxCell>
                <mxCell id="9" value="RESULTADO" style="shape=document;whiteSpace=wrap;html=1;boundedLbl=1;fillColor=#76608a;fontColor=#ffffff;strokeColor=#432D57;" vertex="1" parent="1">
                    <mxGeometry x="520" y="360" width="120" height="80" as="geometry"/>
                </mxCell>
                <mxCell id="10" value="" style="endArrow=classic;html=1;entryX=0.5;entryY=0;entryDx=0;entryDy=0;exitX=1;exitY=0.5;exitDx=0;exitDy=0;" edge="1" parent="1" source="7" target="9">
                    <mxGeometry width="50" height="50" relative="1" as="geometry">
                        <mxPoint x="390" y="290" as="sourcePoint"/>
                        <mxPoint x="440" y="240" as="targetPoint"/>
                        <Array as="points">
                            <mxPoint x="580" y="330"/>
                        </Array>
                    </mxGeometry>
                </mxCell>
                <mxCell id="18" value="" style="edgeStyle=none;html=1;" edge="1" parent="1" source="11" target="17">
                    <mxGeometry relative="1" as="geometry">
                        <Array as="points">
                            <mxPoint x="120" y="400"/>
                        </Array>
                    </mxGeometry>
                </mxCell>
                <mxCell id="11" value="IMC &amp;lt;=17" style="rhombus;whiteSpace=wrap;html=1;fillColor=#e3c800;fontColor=#000000;strokeColor=#B09500;" vertex="1" parent="1">
                    <mxGeometry x="240" y="360" width="80" height="80" as="geometry"/>
                </mxCell>
                <mxCell id="15" value="RESULTADOS" style="shape=document;whiteSpace=wrap;html=1;boundedLbl=1;fillColor=#76608a;fontColor=#ffffff;strokeColor=#432D57;" vertex="1" parent="1">
                    <mxGeometry x="360" y="440" width="120" height="80" as="geometry"/>
                </mxCell>
                <mxCell id="16" value="" style="endArrow=classic;html=1;exitX=1;exitY=0.5;exitDx=0;exitDy=0;entryX=0.5;entryY=0;entryDx=0;entryDy=0;" edge="1" parent="1" source="11" target="15">
                    <mxGeometry width="50" height="50" relative="1" as="geometry">
                        <mxPoint x="390" y="480" as="sourcePoint"/>
                        <mxPoint x="440" y="430" as="targetPoint"/>
                        <Array as="points">
                            <mxPoint x="420" y="400"/>
                        </Array>
                    </mxGeometry>
                </mxCell>
                <mxCell id="17" value="IMC &amp;lt;=18" style="rhombus;whiteSpace=wrap;html=1;fillColor=#e3c800;fontColor=#000000;strokeColor=#B09500;" vertex="1" parent="1">
                    <mxGeometry x="80" y="440" width="80" height="80" as="geometry"/>
                </mxCell>
                <mxCell id="19" value="RESULTADO" style="shape=document;whiteSpace=wrap;html=1;boundedLbl=1;fillColor=#76608a;fontColor=#ffffff;strokeColor=#432D57;" vertex="1" parent="1">
                    <mxGeometry x="200" y="520" width="120" height="80" as="geometry"/>
                </mxCell>
                <mxCell id="21" value="" style="endArrow=classic;html=1;exitX=1;exitY=0.5;exitDx=0;exitDy=0;entryX=0.5;entryY=0;entryDx=0;entryDy=0;" edge="1" parent="1" source="17" target="19">
                    <mxGeometry width="50" height="50" relative="1" as="geometry">
                        <mxPoint x="390" y="480" as="sourcePoint"/>
                        <mxPoint x="440" y="430" as="targetPoint"/>
                        <Array as="points">
                            <mxPoint x="260" y="480"/>
                        </Array>
                    </mxGeometry>
                </mxCell>
                <mxCell id="22" value="IMC &amp;lt;=25" style="rhombus;whiteSpace=wrap;html=1;fillColor=#e3c800;fontColor=#000000;strokeColor=#B09500;" vertex="1" parent="1">
                    <mxGeometry x="-80" y="520" width="80" height="80" as="geometry"/>
                </mxCell>
                <mxCell id="23" value="" style="endArrow=classic;html=1;exitX=0;exitY=0.5;exitDx=0;exitDy=0;entryX=0.5;entryY=0;entryDx=0;entryDy=0;" edge="1" parent="1" source="17" target="22">
                    <mxGeometry width="50" height="50" relative="1" as="geometry">
                        <mxPoint x="300" y="480" as="sourcePoint"/>
                        <mxPoint x="350" y="430" as="targetPoint"/>
                        <Array as="points">
                            <mxPoint x="-40" y="480"/>
                        </Array>
                    </mxGeometry>
                </mxCell>
                <mxCell id="24" value="RESULTADO" style="shape=document;whiteSpace=wrap;html=1;boundedLbl=1;fillColor=#76608a;fontColor=#ffffff;strokeColor=#432D57;" vertex="1" parent="1">
                    <mxGeometry x="40" y="600" width="120" height="80" as="geometry"/>
                </mxCell>
                <mxCell id="25" value="" style="endArrow=classic;html=1;entryX=0.5;entryY=0;entryDx=0;entryDy=0;exitX=1;exitY=0.5;exitDx=0;exitDy=0;" edge="1" parent="1" source="22" target="24">
                    <mxGeometry width="50" height="50" relative="1" as="geometry">
                        <mxPoint x="300" y="550" as="sourcePoint"/>
                        <mxPoint x="350" y="500" as="targetPoint"/>
                        <Array as="points">
                            <mxPoint x="100" y="560"/>
                        </Array>
                    </mxGeometry>
                </mxCell>
                <mxCell id="26" value="RESULTADO" style="shape=document;whiteSpace=wrap;html=1;boundedLbl=1;fillColor=#76608a;fontColor=#ffffff;strokeColor=#432D57;" vertex="1" parent="1">
                    <mxGeometry x="-120" y="680" width="120" height="80" as="geometry"/>
                </mxCell>
                <mxCell id="27" value="IMC &amp;lt;=30" style="rhombus;whiteSpace=wrap;html=1;fillColor=#e3c800;fontColor=#000000;strokeColor=#B09500;" vertex="1" parent="1">
                    <mxGeometry x="-240" y="600" width="80" height="80" as="geometry"/>
                </mxCell>
                <mxCell id="28" value="" style="endArrow=classic;html=1;exitX=0;exitY=0.5;exitDx=0;exitDy=0;entryX=0.5;entryY=0;entryDx=0;entryDy=0;" edge="1" parent="1" source="22" target="27">
                    <mxGeometry width="50" height="50" relative="1" as="geometry">
                        <mxPoint x="-100" y="740" as="sourcePoint"/>
                        <mxPoint x="-50" y="690" as="targetPoint"/>
                        <Array as="points">
                            <mxPoint x="-200" y="560"/>
                        </Array>
                    </mxGeometry>
                </mxCell>
                <mxCell id="29" value="" style="endArrow=classic;html=1;entryX=0.5;entryY=0;entryDx=0;entryDy=0;exitX=1;exitY=0.5;exitDx=0;exitDy=0;" edge="1" parent="1" source="27" target="26">
                    <mxGeometry width="50" height="50" relative="1" as="geometry">
                        <mxPoint x="-100" y="740" as="sourcePoint"/>
                        <mxPoint x="-50" y="690" as="targetPoint"/>
                        <Array as="points">
                            <mxPoint x="-60" y="640"/>
                        </Array>
                    </mxGeometry>
                </mxCell>
                <mxCell id="30" value="IMC &amp;lt;=35" style="rhombus;whiteSpace=wrap;html=1;fillColor=#e3c800;fontColor=#000000;strokeColor=#B09500;" vertex="1" parent="1">
                    <mxGeometry x="-400" y="680" width="80" height="80" as="geometry"/>
                </mxCell>
                <mxCell id="31" value="RESULTADO" style="shape=document;whiteSpace=wrap;html=1;boundedLbl=1;fillColor=#76608a;fontColor=#ffffff;strokeColor=#432D57;" vertex="1" parent="1">
                    <mxGeometry x="-280" y="760" width="120" height="80" as="geometry"/>
                </mxCell>
                <mxCell id="32" value="" style="endArrow=classic;html=1;exitX=0;exitY=0.5;exitDx=0;exitDy=0;entryX=0.5;entryY=0;entryDx=0;entryDy=0;" edge="1" parent="1" source="27" target="30">
                    <mxGeometry width="50" height="50" relative="1" as="geometry">
                        <mxPoint x="-100" y="740" as="sourcePoint"/>
                        <mxPoint x="-50" y="690" as="targetPoint"/>
                        <Array as="points">
                            <mxPoint x="-360" y="640"/>
                        </Array>
                    </mxGeometry>
                </mxCell>
                <mxCell id="33" value="" style="endArrow=classic;html=1;exitX=1;exitY=0.5;exitDx=0;exitDy=0;entryX=0.5;entryY=0;entryDx=0;entryDy=0;" edge="1" parent="1" source="30" target="31">
                    <mxGeometry width="50" height="50" relative="1" as="geometry">
                        <mxPoint x="-100" y="740" as="sourcePoint"/>
                        <mxPoint x="-50" y="690" as="targetPoint"/>
                        <Array as="points">
                            <mxPoint x="-220" y="720"/>
                        </Array>
                    </mxGeometry>
                </mxCell>
                <mxCell id="34" value="RESULTADO&amp;nbsp;" style="shape=document;whiteSpace=wrap;html=1;boundedLbl=1;fillColor=#76608a;fontColor=#ffffff;strokeColor=#432D57;" vertex="1" parent="1">
                    <mxGeometry x="-440" y="840" width="120" height="80" as="geometry"/>
                </mxCell>
                <mxCell id="35" value="IMC &amp;lt;=40" style="rhombus;whiteSpace=wrap;html=1;fillColor=#e3c800;fontColor=#000000;strokeColor=#B09500;" vertex="1" parent="1">
                    <mxGeometry x="-560" y="760" width="80" height="80" as="geometry"/>
                </mxCell>
                <mxCell id="36" value="" style="endArrow=classic;html=1;entryX=0.5;entryY=0;entryDx=0;entryDy=0;exitX=0;exitY=0.5;exitDx=0;exitDy=0;" edge="1" parent="1" source="30" target="35">
                    <mxGeometry width="50" height="50" relative="1" as="geometry">
                        <mxPoint x="-410" y="740" as="sourcePoint"/>
                        <mxPoint x="-360" y="690" as="targetPoint"/>
                        <Array as="points">
                            <mxPoint x="-520" y="720"/>
                        </Array>
                    </mxGeometry>
                </mxCell>
                <mxCell id="37" value="" style="endArrow=classic;html=1;exitX=1;exitY=0.5;exitDx=0;exitDy=0;entryX=0.5;entryY=0;entryDx=0;entryDy=0;" edge="1" parent="1" source="35" target="34">
                    <mxGeometry width="50" height="50" relative="1" as="geometry">
                        <mxPoint x="-410" y="740" as="sourcePoint"/>
                        <mxPoint x="-360" y="690" as="targetPoint"/>
                        <Array as="points">
                            <mxPoint x="-380" y="800"/>
                        </Array>
                    </mxGeometry>
                </mxCell>
                <mxCell id="38" value="RESULTADOS&amp;nbsp;" style="shape=document;whiteSpace=wrap;html=1;boundedLbl=1;fillColor=#76608a;fontColor=#ffffff;strokeColor=#432D57;" vertex="1" parent="1">
                    <mxGeometry x="-720" y="840" width="120" height="80" as="geometry"/>
                </mxCell>
                <mxCell id="39" value="" style="endArrow=classic;html=1;entryX=0.5;entryY=0;entryDx=0;entryDy=0;exitX=0;exitY=0.5;exitDx=0;exitDy=0;" edge="1" parent="1" source="35" target="38">
                    <mxGeometry width="50" height="50" relative="1" as="geometry">
                        <mxPoint x="-510" y="800" as="sourcePoint"/>
                        <mxPoint x="-460" y="750" as="targetPoint"/>
                        <Array as="points">
                            <mxPoint x="-660" y="800"/>
                        </Array>
                    </mxGeometry>
                </mxCell>
                <mxCell id="40" value="" style="endArrow=none;html=1;entryX=0.566;entryY=0.765;entryDx=0;entryDy=0;entryPerimeter=0;exitX=0.566;exitY=0.85;exitDx=0;exitDy=0;exitPerimeter=0;" edge="1" parent="1" source="34" target="9">
                    <mxGeometry width="50" height="50" relative="1" as="geometry">
                        <mxPoint x="330" y="860" as="sourcePoint"/>
                        <mxPoint x="530" y="500" as="targetPoint"/>
                        <Array as="points">
                            <mxPoint x="-372" y="1000"/>
                            <mxPoint x="320" y="1000"/>
                            <mxPoint x="580" y="1000"/>
                        </Array>
                    </mxGeometry>
                </mxCell>
                <mxCell id="41" value="" style="endArrow=none;html=1;entryX=0.542;entryY=0.9;entryDx=0;entryDy=0;entryPerimeter=0;" edge="1" parent="1" target="15">
                    <mxGeometry width="50" height="50" relative="1" as="geometry">
                        <mxPoint x="425" y="1000" as="sourcePoint"/>
                        <mxPoint x="400" y="770" as="targetPoint"/>
                    </mxGeometry>
                </mxCell>
                <mxCell id="42" value="" style="endArrow=none;html=1;entryX=0.518;entryY=0.865;entryDx=0;entryDy=0;entryPerimeter=0;" edge="1" parent="1" target="19">
                    <mxGeometry width="50" height="50" relative="1" as="geometry">
                        <mxPoint x="262" y="1000" as="sourcePoint"/>
                        <mxPoint x="400" y="770" as="targetPoint"/>
                    </mxGeometry>
                </mxCell>
                <mxCell id="43" value="" style="endArrow=none;html=1;exitX=0.523;exitY=0.85;exitDx=0;exitDy=0;exitPerimeter=0;" edge="1" parent="1" source="24">
                    <mxGeometry width="50" height="50" relative="1" as="geometry">
                        <mxPoint x="350" y="820" as="sourcePoint"/>
                        <mxPoint x="103" y="1000" as="targetPoint"/>
                    </mxGeometry>
                </mxCell>
                <mxCell id="44" value="" style="endArrow=none;html=1;entryX=0.499;entryY=0.9;entryDx=0;entryDy=0;entryPerimeter=0;" edge="1" parent="1" target="26">
                    <mxGeometry width="50" height="50" relative="1" as="geometry">
                        <mxPoint x="-60" y="1000" as="sourcePoint"/>
                        <mxPoint x="-20" y="770" as="targetPoint"/>
                    </mxGeometry>
                </mxCell>
                <mxCell id="45" value="" style="endArrow=none;html=1;exitX=0.5;exitY=0.75;exitDx=0;exitDy=0;exitPerimeter=0;" edge="1" parent="1" source="31">
                    <mxGeometry width="50" height="50" relative="1" as="geometry">
                        <mxPoint x="-70" y="820" as="sourcePoint"/>
                        <mxPoint x="-220" y="1000" as="targetPoint"/>
                    </mxGeometry>
                </mxCell>
                <mxCell id="46" value="" style="endArrow=none;html=1;exitX=0.542;exitY=0.893;exitDx=0;exitDy=0;exitPerimeter=0;" edge="1" parent="1" source="38">
                    <mxGeometry width="50" height="50" relative="1" as="geometry">
                        <mxPoint x="-310" y="820" as="sourcePoint"/>
                        <mxPoint x="-370" y="1000" as="targetPoint"/>
                        <Array as="points">
                            <mxPoint x="-655" y="1000"/>
                        </Array>
                    </mxGeometry>
                </mxCell>
                <mxCell id="47" value="" style="endArrow=classic;html=1;" edge="1" parent="1">
                    <mxGeometry width="50" height="50" relative="1" as="geometry">
                        <mxPoint y="1000" as="sourcePoint"/>
                        <mxPoint y="1080" as="targetPoint"/>
                    </mxGeometry>
                </mxCell>
                <mxCell id="51" value="" style="edgeStyle=none;html=1;" edge="1" parent="1" source="49" target="50">
                    <mxGeometry relative="1" as="geometry"/>
                </mxCell>
                <mxCell id="49" value="PRINT&amp;nbsp;&lt;br&gt;RESULTADO" style="shape=document;whiteSpace=wrap;html=1;boundedLbl=1;fillColor=#76608a;fontColor=#ffffff;strokeColor=#432D57;" vertex="1" parent="1">
                    <mxGeometry x="-60" y="1080" width="120" height="80" as="geometry"/>
                </mxCell>
                <mxCell id="50" value="FIN" style="ellipse;whiteSpace=wrap;html=1;fillColor=#60a917;fontColor=#ffffff;strokeColor=#2D7600;" vertex="1" parent="1">
                    <mxGeometry x="-65" y="1180" width="130" height="80" as="geometry"/>
                </mxCell>
            </root>
        </mxGraphModel>
    </diagram>
</mxfile>